# xmcd CD database file
#
# Track frame offsets:
#	150
#	10701
#	21451
#	44312
#	60365
#	78532
#	89068
#	104105
#	120783
#	133481
#	145492
#	154322
#
# Disc length: 2320 seconds
#
# Revision: 0
# Processed by: cddbd v1.5.1PL0 Copyright (c) Steve Scherf et al.
# Submitted via: CDex 1.51
#
DISCID=a8090e0c
DTITLE=100 Haur Kanta - 100 Haur Kanta (6 of 8)
DYEAR=2003
DGENRE=Euskal Haur Musika
TTITLE0=Sardina Bat
TTITLE1=Kaixo Sundybell
TTITLE2=Paradisuko Atean
TTITLE3=Mac Mikel
TTITLE4=Haika, Mutil
TTITLE5=Ttun-Kurrun-Kuttun
TTITLE6=Amona Josefina
TTITLE7=Furra Furra
TTITLE8=Amonatxo
TTITLE9=Amona Ta Aitona
TTITLE10=Txiki, Txiki, Txikia
TTITLE11=Kontrapas
EXTD=YEAR: 2003
EXTT0=
EXTT1=
EXTT2=
EXTT3=
EXTT4=
EXTT5=
EXTT6=
EXTT7=
EXTT8=
EXTT9=
EXTT10=
EXTT11=
PLAYORDER=
